# Max2Obj Version 4.0 Mar 10th, 2001
#
mtllib ./yougurt_pack_01-obj.mtl
g
# object yougurt_pack_01 to come ...
#
v  30.611149 0.559245 -11.141548
v  32.575706 0.559243 0.000000
v  24.954437 0.559245 -20.939260
v  16.287851 0.559245 -28.211390
v  5.656709 0.559245 -32.080811
v  -5.656717 0.559245 -32.080811
v  -16.287855 0.559245 -28.211390
v  -24.954437 0.559245 -20.939260
v  -30.611145 0.559245 -11.141549
v  -32.575706 0.559245 -0.000005
v  -30.611149 0.559245 11.141541
v  -24.954443 0.559245 20.939253
v  -16.287863 0.559245 28.211384
v  -5.656726 0.559245 32.080807
v  5.656694 0.559245 32.080811
v  16.287838 0.559245 28.211399
v  24.954424 0.559245 20.939276
v  30.611137 0.559245 11.141569
v  30.159822 0.015458 -10.977279
v  32.095413 0.015456 0.000000
v  24.586512 0.015458 -20.630535
v  16.047705 0.015458 -27.795444
v  5.573307 0.015458 -31.607813
v  -5.573314 0.015458 -31.607813
v  -16.047709 0.015458 -27.795444
v  -24.586512 0.015458 -20.630535
v  -30.159819 0.015458 -10.977280
v  -32.095413 0.015458 -0.000005
v  -30.159822 0.015458 10.977271
v  -24.586519 0.015458 20.630527
v  -16.047714 0.015458 27.795439
v  -5.573324 0.015458 31.607809
v  5.573293 0.015458 31.607817
v  16.047689 0.015458 27.795452
v  24.586498 0.015458 20.630550
v  30.159813 0.015458 10.977300
v  40.057461 95.171486 0.000001
v  37.641705 95.171486 -13.700459
v  30.685795 95.171486 -25.748440
v  20.028727 95.171486 -34.690781
v  6.955902 95.171486 -39.448898
v  -6.955909 95.171486 -39.448898
v  -20.028730 95.171486 -34.690781
v  -30.685795 95.171486 -25.748440
v  -37.641701 95.171486 -13.700460
v  -40.057461 95.171486 -0.000006
v  -37.641705 95.171486 13.700449
v  -30.685802 95.171486 25.748430
v  -20.028742 95.171486 34.690765
v  -6.955922 95.171486 39.448887
v  6.955885 95.171486 39.448895
v  20.028708 95.171486 34.690788
v  30.685778 95.171486 25.748461
v  37.641689 95.171486 13.700485
v  39.257885 108.289627 -14.288698
v  41.777367 108.289619 0.000001
v  39.257870 108.289627 14.288731
v  32.003300 108.289627 26.853994
v  20.888659 108.289627 36.180271
v  7.254542 108.289627 41.142673
v  -7.254580 108.289627 41.142666
v  -20.888695 108.289627 36.180248
v  -32.003326 108.289627 26.853966
v  -39.257885 108.289627 14.288694
v  -41.777367 108.289619 -0.000006
v  -39.257881 108.289627 -14.288700
v  -32.003319 108.289627 -26.853971
v  -20.888685 108.289627 -36.180264
v  -7.254568 108.289627 -41.142677
v  7.254561 108.289627 -41.142677
v  20.888678 108.289627 -36.180264
v  32.003319 108.289627 -26.853971
v  40.467842 95.350342 0.000001
v  38.027336 95.350342 -13.840816
v  31.000162 95.350342 -26.012226
v  20.233917 95.350342 -35.046181
v  7.027164 95.350342 -39.853043
v  -7.027172 95.350342 -39.853043
v  -20.233921 95.350342 -35.046181
v  -31.000162 95.350342 -26.012226
v  -38.027332 95.350342 -13.840818
v  -40.467842 95.350342 -0.000006
v  -38.027336 95.350342 13.840807
v  -31.000172 95.350342 26.012218
v  -20.233932 95.350342 35.046165
v  -7.027184 95.350342 39.853031
v  7.027146 95.350342 39.853039
v  20.233898 95.350342 35.046188
v  31.000145 95.350342 26.012247
v  38.027321 95.350342 13.840843
v  39.864429 108.289627 -14.509462
v  42.422836 108.289619 0.000001
v  39.864414 108.289627 14.509495
v  32.497757 108.289627 27.268894
v  21.211393 108.289627 36.739265
v  3.854827 108.289627 55.146011
v  -2.798748 108.289627 53.809097
v  -20.036526 108.289627 36.739243
v  -31.960922 108.289627 27.194609
v  -39.864429 108.289627 14.509459
v  -42.422836 108.289619 -0.000006
v  -39.864426 108.289627 -14.509464
v  -32.497776 108.289627 -27.268871
v  -21.211420 108.289627 -36.739258
v  -7.366653 108.289627 -41.778343
v  7.366646 108.289627 -41.778343
v  21.211412 108.289627 -36.739258
v  32.497776 108.289627 -27.268871
v  6.976656 108.289627 53.690979
v  0.451315 108.289627 55.146011
# 110 vertices

vt  0.939801 0.696235 1.500000
vt  0.968220 0.554617 0.500000
vt  0.939801 0.412999 1.500000
vt  0.857973 0.288463 1.500000
vt  0.732606 0.196029 1.500000
vt  0.539812 0.016373 1.500000
vt  0.465905 0.029422 1.500000
vt  0.274430 0.196029 1.500000
vt  0.141976 0.289188 1.500000
vt  0.054185 0.413000 1.500000
vt  0.025766 0.554618 0.500000
vt  0.054185 0.696235 1.500000
vt  0.136012 0.820771 1.500000
vt  0.261380 0.913206 1.500000
vt  0.415165 0.962389 1.500000
vt  0.578821 0.962389 1.500000
vt  0.732607 0.913206 1.500000
vt  0.857974 0.820771 1.500000
vt  0.574489 0.030574 1.500000
vt  0.502006 0.016373 1.500000
vt  0.805556 0.000500 0.828586
vt  0.805556 0.006001 0.840985
vt  0.750000 0.006001 0.840985
vt  0.750000 0.000500 0.828586
vt  0.861111 0.000500 0.828586
vt  0.861111 0.006001 0.840985
vt  0.916667 0.000500 0.828586
vt  0.916667 0.006001 0.840985
vt  0.972222 0.000500 0.828586
vt  0.972222 0.006001 0.840985
vt  0.027778 0.000500 0.828586
vt  0.027778 0.006001 0.840985
vt  0.083333 0.000500 0.828586
vt  0.083333 0.006001 0.840985
vt  0.138889 0.000500 0.828586
vt  0.138889 0.006001 0.840985
vt  0.194444 0.000500 0.828586
vt  0.194444 0.006001 0.840985
vt  0.250000 0.000500 0.828586
vt  0.250000 0.006001 0.840985
vt  0.305555 0.000500 0.828586
vt  0.305556 0.006001 0.840985
vt  0.361111 0.000500 0.828586
vt  0.361111 0.006001 0.840985
vt  0.416667 0.000500 0.828586
vt  0.416667 0.006001 0.840985
vt  0.472222 0.000500 0.828586
vt  0.472222 0.006001 0.840985
vt  0.527778 0.000500 0.828586
vt  0.527778 0.006001 0.840985
vt  0.583333 0.000500 0.828586
vt  0.583333 0.006001 0.840985
vt  0.638889 0.000500 0.828586
vt  0.638889 0.006001 0.840985
vt  0.694444 0.000500 0.828586
vt  0.694444 0.006001 0.840985
vt  0.805556 0.866785 0.957874
vt  0.750000 0.866785 0.957874
vt  0.861111 0.866785 0.957874
vt  0.916667 0.866785 0.957874
vt  0.972222 0.866785 0.957874
vt  0.027778 0.866785 0.957874
vt  0.083333 0.866785 0.957874
vt  0.138889 0.866785 0.957874
vt  0.194444 0.866785 0.957874
vt  0.250000 0.866785 0.957874
vt  0.305555 0.866785 0.957874
vt  0.361111 0.866785 0.957874
vt  0.416667 0.866785 0.957874
vt  0.472222 0.866785 0.957874
vt  0.527778 0.866785 0.957874
vt  0.583333 0.866785 0.957874
vt  0.638889 0.866785 0.957874
vt  0.694444 0.866785 0.957874
vt  0.805556 0.999500 0.999001
vt  0.750000 0.999500 0.999001
vt  0.750000 0.868594 0.967687
vt  0.805556 0.868594 0.967687
vt  0.861111 0.999500 0.999001
vt  0.861111 0.868594 0.967687
vt  0.916667 0.999500 0.999001
vt  0.916667 0.868594 0.967687
vt  0.972222 0.999500 0.999001
vt  0.972222 0.868594 0.967687
vt  0.027778 0.999500 0.999001
vt  0.027778 0.868594 0.967687
vt  0.083333 0.999500 0.999001
vt  0.083333 0.868594 0.967687
vt  0.138889 0.999500 0.999001
vt  0.138889 0.868594 0.967687
vt  0.194444 0.999500 0.999001
vt  0.194444 0.868594 0.967687
vt  0.250000 0.999500 0.999001
vt  0.250000 0.868594 0.967687
vt  0.305556 0.999500 0.999001
vt  0.305555 0.868594 0.967687
vt  0.361111 0.999500 0.999001
vt  0.361111 0.868594 0.967687
vt  0.416667 0.999500 0.999001
vt  0.416667 0.868594 0.967687
vt  0.472222 0.999500 0.999001
vt  0.472222 0.868594 0.967687
vt  0.527778 0.999500 0.999001
vt  0.527778 0.868594 0.967687
vt  0.583333 0.999500 0.999001
vt  0.583333 0.868594 0.967687
vt  0.638889 0.999500 0.999001
vt  0.638889 0.868594 0.967687
vt  0.694444 0.999500 0.999001
vt  0.694444 0.868594 0.967687
vt  -0.027778 0.006001 0.840985
vt  -0.027778 0.000500 0.828586
vt  -0.027778 0.866785 0.957874
vt  -0.027778 0.006001 0.840985
vt  -0.027778 0.999500 0.999001
vt  -0.027778 0.868594 0.967687
vt  1.027778 0.866785 0.957874
vt  1.027778 0.868594 0.967687
vt  -0.027778 0.000500 0.828586
vt  -0.083333 0.000500 0.828586
vt  -0.138889 0.000500 0.828586
vt  -0.194444 0.000500 0.828586
vt  -0.250000 0.000500 0.828586
# 123 texture vertices

vn  2.032692 -1.910566 -0.739840
vn  2.163142 -1.910569 0.000001
vn  1.657065 -1.910567 -1.390442
vn  1.081572 -1.910567 -1.873338
vn  0.375625 -1.910571 -2.130277
vn  -0.375625 -1.910571 -2.130276
vn  -1.081573 -1.910567 -1.873338
vn  -1.657065 -1.910567 -1.390442
vn  -2.032693 -1.910566 -0.739840
vn  -2.163142 -1.910569 -0.000001
vn  -2.032693 -1.910566 0.739839
vn  -1.657067 -1.910564 1.390444
vn  -1.081572 -1.910569 1.873335
vn  -0.375626 -1.910571 2.130277
vn  0.375626 -1.910564 2.130286
vn  1.081568 -1.910572 1.873333
vn  1.657064 -1.910567 1.390443
vn  2.032695 -1.910562 0.739842
vn  0.704309 -0.661993 -0.256348
vn  0.749509 -0.661994 0.000000
vn  0.574157 -0.661994 -0.481775
vn  0.374755 -0.661994 -0.649094
vn  0.130151 -0.661995 -0.738121
vn  -0.130151 -0.661995 -0.738121
vn  -0.374755 -0.661994 -0.649094
vn  -0.574158 -0.661994 -0.481775
vn  -0.704309 -0.661993 -0.256348
vn  -0.749509 -0.661994 -0.000000
vn  -0.704309 -0.661993 0.256347
vn  -0.574158 -0.661993 0.481776
vn  -0.374754 -0.661994 0.649094
vn  -0.130151 -0.661995 0.738121
vn  0.130151 -0.661992 0.738124
vn  0.374753 -0.661996 0.649093
vn  0.574157 -0.661994 0.481776
vn  0.704310 -0.661992 0.256348
vn  3.057644 -0.241793 0.000001
vn  2.873245 -0.241793 -1.045776
vn  2.342291 -0.241793 -1.965416
vn  1.528822 -0.241793 -2.647997
vn  0.530954 -0.241793 -3.011191
vn  -0.530954 -0.241793 -3.011191
vn  -1.528822 -0.241793 -2.647997
vn  -2.342291 -0.241793 -1.965416
vn  -2.873245 -0.241793 -1.045776
vn  -3.057644 -0.241793 -0.000000
vn  -2.873246 -0.241793 1.045775
vn  -2.342291 -0.241793 1.965415
vn  -1.528822 -0.241793 2.647997
vn  -0.530956 -0.241792 3.011191
vn  0.530952 -0.241792 3.011192
vn  1.528820 -0.241792 2.647999
vn  2.342290 -0.241793 1.965417
vn  2.873245 -0.241793 1.045777
vn  0.934917 -0.100691 -0.340282
vn  0.994918 -0.100691 0.000000
vn  0.934917 -0.100691 0.340283
vn  0.762151 -0.100691 0.639521
vn  0.497458 -0.100691 0.861624
vn  0.172765 -0.100691 0.979803
vn  -0.172766 -0.100691 0.979803
vn  -0.497459 -0.100691 0.861624
vn  -0.762151 -0.100691 0.639521
vn  -0.934917 -0.100691 0.340282
vn  -0.994918 -0.100691 -0.000000
vn  -0.934917 -0.100691 -0.340282
vn  -0.762151 -0.100691 -0.639521
vn  -0.497459 -0.100691 -0.861624
vn  -0.172766 -0.100691 -0.979803
vn  0.172766 -0.100691 -0.979803
vn  0.497459 -0.100691 -0.861624
vn  0.762151 -0.100691 -0.639521
vn  3.112882 -0.315040 0.000001
vn  2.925152 -0.315040 -1.064668
vn  2.384606 -0.315041 -2.000923
vn  1.556441 -0.315041 -2.695835
vn  0.540546 -0.315041 -3.065590
vn  -0.540546 -0.315041 -3.065590
vn  -1.556441 -0.315041 -2.695834
vn  -2.384606 -0.315040 -2.000922
vn  -2.925152 -0.315040 -1.064669
vn  -3.112882 -0.315040 -0.000000
vn  -2.925153 -0.315040 1.064668
vn  -2.384606 -0.315041 2.000922
vn  -1.556441 -0.315041 2.695835
vn  -0.540547 -0.315041 3.065590
vn  0.540544 -0.315041 3.065591
vn  1.556439 -0.315040 2.695836
vn  2.384605 -0.315040 2.000924
vn  2.925151 -0.315040 1.064670
vn  0.000000 1.000000 -0.000000
vn  0.000003 1.000000 0.000000
vn  0.000000 1.000000 -0.000000
vn  0.000000 1.000000 -0.000000
vn  0.000000 1.000000 -0.000000
vn  0.000000 1.000000 -0.000000
vn  0.000000 1.000000 -0.000000
vn  0.000000 1.000000 -0.000000
vn  0.000001 1.000000 -0.000001
vn  0.000001 1.000000 -0.000001
vn  0.000001 1.000000 0.000001
vn  0.000001 1.000000 0.000001
vn  0.000000 1.000000 -0.000000
vn  0.000000 1.000000 -0.000000
vn  0.000000 1.000000 -0.000000
vn  0.000000 1.000000 -0.000000
vn  0.000000 1.000000 -0.000000
vn  0.000000 1.000000 -0.000000
vn  0.000000 1.000000 -0.000000
vn  0.000000 1.000000 -0.000000
# 110 vertex normals

g yougurt_pack_01
usemtl 01_-_Default
s 1
f 19/21/19 1/22/1 2/23/2 20/24/20
f 21/25/21 3/26/3 1/22/1 19/21/19
f 22/27/22 4/28/4 3/26/3 21/25/21
f 23/29/23 5/30/5 4/28/4 22/27/22
f 24/31/24 6/32/6 5/111/5 23/112/23
f 25/33/25 7/34/7 6/32/6 24/31/24
f 26/35/26 8/36/8 7/34/7 25/33/25
f 27/37/27 9/38/9 8/36/8 26/35/26
f 28/39/28 10/40/10 9/38/9 27/37/27
f 29/41/29 11/42/11 10/40/10 28/39/28
f 30/43/30 12/44/12 11/42/11 29/41/29
f 31/45/31 13/46/13 12/44/12 30/43/30
f 32/47/32 14/48/14 13/46/13 31/45/31
f 33/49/33 15/50/15 14/48/14 32/47/32
f 34/51/34 16/52/16 15/50/15 33/49/33
f 35/53/35 17/54/17 16/52/16 34/51/34
f 36/55/36 18/56/18 17/54/17 35/53/35
f 20/24/20 2/23/2 18/56/18 36/55/36
s 256
f 2/23/2 1/22/1 38/57/38 37/58/37
f 1/22/1 3/26/3 39/59/39 38/57/38
f 3/26/3 4/28/4 40/60/40 39/59/39
f 4/28/4 5/30/5 41/61/41 40/60/40
f 5/114/5 6/32/6 42/62/42 41/113/41
f 6/32/6 7/34/7 43/63/43 42/62/42
f 7/34/7 8/36/8 44/64/44 43/63/43
f 8/36/8 9/38/9 45/65/45 44/64/44
f 9/38/9 10/40/10 46/66/46 45/65/45
f 10/40/10 11/42/11 47/67/47 46/66/46
f 11/42/11 12/44/12 48/68/48 47/67/47
f 12/44/12 13/46/13 49/69/49 48/68/48
f 13/46/13 14/48/14 50/70/50 49/69/49
f 14/48/14 15/50/15 51/71/51 50/70/50
f 15/50/15 16/52/16 52/72/52 51/71/51
f 16/52/16 17/54/17 53/73/53 52/72/52
f 17/54/17 18/56/18 54/74/54 53/73/53
f 18/56/18 2/23/2 37/58/37 54/74/54
s 1
f 55/75/55 56/76/56 73/77/73 74/78/74
f 72/79/72 55/75/55 74/78/74 75/80/75
f 71/81/71 72/79/72 75/80/75 76/82/76
f 70/83/70 71/81/71 76/82/76 77/84/77
f 69/85/69 70/115/70 77/116/77 78/86/78
f 68/87/68 69/85/69 78/86/78 79/88/79
f 67/89/67 68/87/68 79/88/79 80/90/80
f 66/91/66 67/89/67 80/90/80 81/92/81
f 65/93/65 66/91/66 81/92/81 82/94/82
f 64/95/64 65/93/65 82/94/82 83/96/83
f 63/97/63 64/95/64 83/96/83 84/98/84
f 62/99/62 63/97/63 84/98/84 85/100/85
f 61/101/61 62/99/62 85/100/85 86/102/86
f 60/103/60 61/101/61 86/102/86 87/104/87
f 59/105/59 60/103/60 87/104/87 88/106/88
f 58/107/58 59/105/59 88/106/88 89/108/89
f 57/109/57 58/107/58 89/108/89 90/110/90
f 56/76/56 57/109/57 90/110/90 73/77/73
s 2
f 37/58/37 38/57/38 74/78/74 73/77/73
f 38/57/38 39/59/39 75/80/75 74/78/74
f 39/59/39 40/60/40 76/82/76 75/80/75
f 40/60/40 41/61/41 77/84/77 76/82/76
f 41/61/41 42/117/42 78/118/78 77/84/77
f 42/62/42 43/63/43 79/88/79 78/86/78
f 43/63/43 44/64/44 80/90/80 79/88/79
f 44/64/44 45/65/45 81/92/81 80/90/80
f 45/65/45 46/66/46 82/94/82 81/92/81
f 46/66/46 47/67/47 83/96/83 82/94/82
f 47/67/47 48/68/48 84/98/84 83/96/83
f 48/68/48 49/69/49 85/100/85 84/98/84
f 49/69/49 50/70/50 86/102/86 85/100/85
f 50/70/50 51/71/51 87/104/87 86/102/86
f 51/71/51 52/72/52 88/106/88 87/104/87
f 52/72/52 53/73/53 89/108/89 88/106/88
f 53/73/53 54/74/54 90/110/90 89/108/89
f 54/74/54 37/58/37 73/77/73 90/110/90
s 0
f 34/51/34 19/122/19 36/55/36 35/53/35
f 32/47/32 30/43/30 34/51/34 33/49/33
f 28/39/28 26/35/26 30/43/30 29/41/29
f 24/31/24 22/120/22 26/35/26 25/33/25
f 22/120/22 34/51/34 30/43/30 26/35/26
f 19/122/19 34/51/34 22/120/22 21/121/21
usemtl 01_-_Default
f 107/17/107 93/3/93 91/1/91 108/18/108
f 105/15/105 103/13/103 107/17/107 106/16/106
f 101/11/101 99/9/99 103/13/103 102/12/102
f 99/9/99 95/5/95 107/17/107 103/13/103
f 110/20/110 109/19/109 98/8/98 97/7/97
f 109/19/109 95/5/95 99/9/99 98/8/98
f 93/3/93 107/17/107 95/5/95 94/4/94
usemtl 01_-_Default
f 32/47/32 31/45/31 30/43/30
f 28/39/28 27/37/27 26/35/26
f 24/31/24 23/119/23 22/120/22
f 20/123/20 36/55/36 19/122/19
usemtl 01_-_Default
f 105/15/105 104/14/104 103/13/103
f 101/11/101 100/10/100 99/9/99
f 110/20/110 96/6/96 109/19/109
f 91/1/91 93/3/93 92/2/92
# 93 faces

g
